<svg
  width="16"
  height="16"
  viewBox="0 0 16 16"
  fill="none"
  xmlns="http://www.w3.org/2000/svg"
>
  <path
    d="M13.8109 4.38192H14.1986V4.11035H11.6561V8.91147C11.6561 11.4245 9.61563 13.4619 7.09891 13.4619C6.93713 13.4619 6.77674 13.4535 6.61914 13.4368V15.0237C3.65891 14.7954 1.28654 12.471 0.990169 9.53397H0.027832C0.343729 13.1576 3.38904 16 7.09961 16C7.2607 16 7.42039 15.9937 7.57938 15.9833V14.3978C10.4015 14.1547 12.6163 11.7914 12.6163 8.91077H14.1993V5.34075H13.8116V4.38122L13.8109 4.38192ZM13.8109 6.77586H12.8499V5.81633H13.8109V6.77586Z"
    fill="#525252"
  />
  <path
    d="M8.20288 14.9436V15.915C11.3981 15.4171 13.8876 12.7913 14.1715 9.53394H13.2077C12.9323 12.2607 10.8667 14.4604 8.20288 14.9429V14.9436Z"
    fill="#525252"
  />
  <path
    d="M5.99577 14.3093V13.3275C4.01183 12.8352 2.54182 11.045 2.54182 8.91146V1.8501H0V8.91146H1.58297C1.58297 11.5763 3.47836 13.7989 5.99577 14.3093Z"
    fill="#525252"
  />
  <path d="M11.889 0H10.9281V0.959526H11.889V0Z" fill="#525252" />
  <path
    d="M14.7719 0.689453H13.8109V1.64898H14.7719V0.689453Z"
    fill="#525252"
  />
  <path d="M15.7328 2.35425H14.7719V3.31377H15.7328V2.35425Z" fill="#525252" />
  <path d="M13.8109 2.35425H12.85V3.31377H13.8109V2.35425Z" fill="#525252" />
</svg>
